# xmcd
#
# Track frame offsets: 
#        150
#        15275
#        28730
#        48162
#        61920
#        80595
#        94637
#        121647
#        135857
#        177307
#        190547
#        216430
#        226792
#        245912
#        276090
#        293777
#        308320
#        323532
#
# Disc length: 4536 seconds
#
# Revision: 5
# Processed by: cddbd v1.5.2PL0 Copyright (c) Steve Scherf et al.
# Submitted via: ExactAudioCopy v0.99pb1
#
DISCID=df11b612
DTITLE=Mahalia Jackson - Gospels, Spirituals and Hymns, Vol. 2 [CD2]
DYEAR=2002
DGENRE=Gospel
TTITLE0=It Don't Cost Very Much (Live)
TTITLE1=To Me It's So Wonderful
TTITLE2=When I Wake Up In Glory
TTITLE3=I Wan't My Crown
TTITLE4=Speak Lord Jesus
TTITLE5=He Calmed The Ocean
TTITLE6=I Couldn't Keep It To Myself
TTITLE7=Then The Answer Came
TTITLE8=The Love Of God
TTITLE9=He's Right On Time (Live)
TTITLE10=Have You Any Time For Jesus
TTITLE11=Sign Of The Judgement
TTITLE12=No Other Help I Know
TTITLE13=Summertime/Sometimes I Feel Like A Motherless Child
TTITLE14=When The Saints Go Marching In
TTITLE15=My Desire
TTITLE16=I'm On My Way (Live)
TTITLE17=The Lord's Prayer (Live)
EXTD=YEAR: 2002
EXTT0=
EXTT1=
EXTT2=
EXTT3=
EXTT4=
EXTT5=
EXTT6=
EXTT7=
EXTT8=
EXTT9=
EXTT10=
EXTT11=
EXTT12=
EXTT13=
EXTT14=
EXTT15=
EXTT16=
EXTT17=
PLAYORDER=
